<svg width="2130" height="2545" viewBox="0 0 2130 2545" fill="none" xmlns="http://www.w3.org/2000/svg">
<path fill-rule="evenodd" clip-rule="evenodd" d="M2129.73 743.411C2129.73 612.411 988.23 -116.056 819.229 15.9117C650.229 147.88 778.5 1887.91 778.5 1887.91L0 1607.91L941.5 2544.5L1856.5 1607.91L1058 1887.91C1058 1887.91 1048.85 1496.41 1084.23 1401.41C1119.61 1306.41 1676.59 1056.33 1676.58 1056.33L1676.59 1056.33C1941.93 911.206 2129.73 874.412 2129.73 743.411ZM1696.23 716.912C1696.23 631.912 1122.46 373.56 1084.23 394.912C1046 416.264 1084.23 928.913 1084.23 990.912C1084.23 1052.91 1696.23 801.912 1696.23 716.912Z" fill="url(#paint0_linear_1_5)"/>
<defs>
<linearGradient id="paint0_linear_1_5" x1="1237.66" y1="-55.4616" x2="1237.66" y2="2565.88" gradientUnits="userSpaceOnUse">
<stop stop-color="#F2C231"/>
<stop offset="1" stop-color="#F63528"/>
</linearGradient>
</defs>
</svg>
