<?xml version="1.0" encoding="utf-8"?>
<!-- Generator: Adobe Illustrator 25.2.1, SVG Export Plug-In . SVG Version: 6.00 Build 0)  -->
<svg version="1.1" id="Layer_1" xmlns="http://www.w3.org/2000/svg" xmlns:xlink="http://www.w3.org/1999/xlink" x="0px" y="0px"
	 viewBox="0 0 1024 1024" style="enable-background:new 0 0 1024 1024;" xml:space="preserve">
<style type="text/css">
	.st0{fill:#00D958;}
	.st1{fill:#A4D7DC;}
</style>
<path class="st0" d="M202.7,853.3L879.1,915c0,17.7-690.7,13-708.4,13s-32-14.3-32-32v-42.7C138.7,717.8,248.5,608,384,608h256
	c135.5,0,245.3,109.8,245.3,245.3V896c0,17.7-14.3,32-32,32s-708.4,4.7-708.4-13l676.4-61.7C821.3,753.2,740.1,672,640,672H384
	C283.9,672,202.7,753.2,202.7,853.3z M512,85.3c117.8,0,213.3,95.5,213.3,213.3S629.8,512,512,512c-117.8,0-213.3-95.5-213.3-213.4
	C298.7,180.8,394.2,85.3,512,85.3z M512,149.3c-82.5,0-149.3,66.8-149.4,149.3S429.5,448,512,448c0,0,0,0,0,0
	c82.5,0,149.3-66.9,149.3-149.4C661.3,216.2,594.5,149.3,512,149.3z M519,915"/>
<ellipse class="st0" cx="511.9" cy="787.2" rx="354.6" ry="133.6"/>
<circle class="st0" cx="511.9" cy="298.7" r="167.7"/>
<ellipse class="st1" cx="1122.8" cy="206.8" rx="24.9" ry="8.2"/>
</svg>
