<?xml version="1.0" encoding="utf-8"?>
<!-- Generator: Adobe Illustrator 25.2.1, SVG Export Plug-In . SVG Version: 6.00 Build 0)  -->
<svg version="1.1" id="Layer_3" xmlns="http://www.w3.org/2000/svg" xmlns:xlink="http://www.w3.org/1999/xlink" x="0px" y="0px"
	 viewBox="0 0 1024 1024" style="enable-background:new 0 0 1024 1024;" xml:space="preserve">
<style type="text/css">
	.st0{fill:#C70084;}
	.st1{fill:#FF78E4;}
	.st2{fill:#FF20B0;}
	.st3{fill:#FF4BC8;}
	.st4{fill:#FE7DE4;}
	.st5{fill:#FE1FAD;}
	.st6{fill:#FF4AC6;}
	.st7{fill:#FDBDF1;}
</style>
<rect x="288" y="744.3" class="st0" width="66.6" height="66.6"/>
<rect x="354.6" y="810.9" class="st0" width="66.6" height="66.6"/>
<rect x="421.1" y="810.9" class="st0" width="66.6" height="66.6"/>
<rect x="487.7" y="810.9" class="st0" width="66.6" height="66.6"/>
<rect x="554.2" y="744.3" class="st0" width="66.6" height="66.6"/>
<rect x="554.2" y="677.8" class="st0" width="66.6" height="66.6"/>
<rect x="354.6" y="677.8" class="st0" width="66.6" height="66.6"/>
<rect x="421.1" y="611.2" class="st0" width="66.6" height="66.6"/>
<rect x="554.2" y="611.2" class="st0" width="66.6" height="66.6"/>
<rect x="554.2" y="544.7" class="st0" width="66.6" height="66.6"/>
<rect x="354.6" y="544.7" class="st0" width="66.6" height="66.6"/>
<rect x="421.1" y="478.1" class="st0" width="66.6" height="66.6"/>
<rect x="554.2" y="478.7" class="st0" width="66.6" height="66.6"/>
<rect x="620.8" y="411.6" class="st0" width="66.6" height="66.6"/>
<rect x="354.6" y="411.6" class="st0" width="66.6" height="66.6"/>
<rect x="288" y="345" class="st0" width="66.6" height="66.6"/>
<rect x="487.7" y="345" class="st0" width="66.6" height="66.6"/>
<rect x="487.7" y="278.5" class="st0" width="66.6" height="66.6"/>
<rect x="687.3" y="345" class="st0" width="66.6" height="66.6"/>
<rect x="687.3" y="278.5" class="st0" width="66.6" height="66.6"/>
<rect x="620.8" y="211.9" class="st0" width="66.6" height="66.6"/>
<rect x="554.2" y="145.4" class="st0" width="66.6" height="66.6"/>
<rect x="487.7" y="145.4" class="st0" width="66.6" height="66.6"/>
<rect x="421.1" y="145.4" class="st0" width="66.6" height="66.6"/>
<rect x="354.6" y="211.9" class="st0" width="66.6" height="66.6"/>
<rect x="288" y="278.5" class="st0" width="66.6" height="66.6"/>
<rect x="354.6" y="744.3" class="st1" width="66.6" height="66.6"/>
<rect x="421.1" y="744.3" class="st2" width="66.6" height="66.6"/>
<rect x="421.1" y="677.8" class="st3" width="66.6" height="66.6"/>
<rect x="487.7" y="744.3" class="st3" width="66.6" height="66.6"/>
<rect x="487.7" y="677.8" class="st2" width="66.6" height="66.6"/>
<rect x="487.7" y="611.2" class="st2" width="66.6" height="66.6"/>
<rect x="487.7" y="544.7" class="st2" width="66.6" height="66.6"/>
<rect x="421.1" y="544.7" class="st3" width="66.6" height="66.6"/>
<rect x="487.7" y="478.1" class="st4" width="66.6" height="66.6"/>
<rect x="487.7" y="411.6" class="st4" width="66.6" height="66.6"/>
<rect x="421.1" y="411.6" class="st5" width="66.6" height="66.6"/>
<rect x="354.6" y="345" class="st5" width="66.6" height="66.6"/>
<rect x="554.2" y="411.6" class="st6" width="66.6" height="66.6"/>
<rect x="421.1" y="345" class="st4" width="66.6" height="66.6"/>
<rect x="554.2" y="345" class="st5" width="66.6" height="66.6"/>
<rect x="620.8" y="345" class="st4" width="66.6" height="66.6"/>
<rect x="354.6" y="278.5" class="st6" width="66.6" height="66.6"/>
<rect x="421.1" y="278.5" class="st6" width="66.6" height="66.6"/>
<rect x="421.1" y="211.9" class="st6" width="66.6" height="66.6"/>
<rect x="487.7" y="211.9" class="st4" width="66.6" height="66.6"/>
<rect x="554.2" y="278.5" class="st4" width="66.6" height="66.6"/>
<rect x="554.2" y="211.9" class="st7" width="66.6" height="66.6"/>
<rect x="620.8" y="278.5" class="st7" width="66.6" height="66.6"/>
</svg>
