<?xml version="1.0" encoding="utf-8"?>
<!-- Generator: Adobe Illustrator 25.2.1, SVG Export Plug-In . SVG Version: 6.00 Build 0)  -->
<svg version="1.1" id="Layer_1" xmlns="http://www.w3.org/2000/svg" xmlns:xlink="http://www.w3.org/1999/xlink" x="0px" y="0px"
	 viewBox="0 0 1024 1024" style="enable-background:new 0 0 1024 1024;" xml:space="preserve">
<style type="text/css">
	.st0{fill:#7600FF;}
</style>
<path class="st0" d="M898.2,804.7l-89.6-454.6c-3.6-18.3-21.1-31.6-41.5-31.6H618.3c27.9-25,45.3-59.8,45.3-98.2
	c0-76.1-68-138-151.5-138s-151.5,61.9-151.5,137.9c0,38.4,17.3,73.2,45.3,98.2h-149c-20.5,0-37.9,13.3-41.5,31.6l-89.6,454.6
	c-2.2,11.2,1.2,22.7,9.1,31.4c8.1,8.8,19.8,13.7,32.4,13.7h689.5c12.6,0,24.3-5.1,32.4-13.7C897.2,827.5,900.5,815.9,898.2,804.7z
	 M512.1,159c37,0,67.1,27.4,67.1,61.1s-30.1,61.1-67.1,61.1s-67.1-27.4-67.1-61.1S475.1,159,512.1,159z"/>
</svg>
