<svg class="svg-icon" style="width: 1em; height: 1em;vertical-align: middle;fill: currentColor;overflow: hidden;" viewBox="0 0 1024 1024" version="1.1" xmlns="http://www.w3.org/2000/svg"><path d="M563.7 424.8c-15.1-8.8-32.6-13.9-51.4-13.9-56.3 0-101.9 45.6-101.9 101.9 0 56.3 45.6 101.9 101.9 101.9s101.9-45.6 101.9-101.9c0-16.1-3.8-31.4-10.4-45L830.6 241l31.1 26.2L979 156.6l-87.3-9.4-11.3-83.4L763 174.4l25.9 25-225.2 225.4z" fill="#3468F7" /><path d="M801.5 306c41.9 58.3 66.6 129.8 66.6 206.9 0 196.2-159.6 355.8-355.8 355.8S156.4 709.1 156.4 512.9 316.1 157 512.3 157c76.7 0 147.7 24.5 205.9 65.9l42.1-42.1c-69.2-51.8-155.1-82.6-248-82.6-228.6 0-414.7 186-414.7 414.6s186 414.6 414.7 414.6 414.6-186 414.6-414.6c0-93.4-31-179.6-83.3-249L801.5 306z" fill="#3468F7" /><path d="M512.3 311.1c34 0 66.1 8.5 94.2 23.5l43.1-43.1c-39.9-24.8-86.9-39.2-137.3-39.2-143.7 0-260.6 116.9-260.6 260.6s116.9 260.6 260.6 260.6 260.6-116.9 260.6-260.6c0-50.8-14.7-98.2-39.9-138.3l-43 43c15.3 28.4 24 60.9 24 95.3 0 111.2-90.5 201.7-201.7 201.7s-201.7-90.5-201.7-201.7c-0.1-111.3 90.4-201.8 201.7-201.8z" fill="#3468F7" /></svg>